<mxfile host="app.diagrams.net" modified="2023-05-03T08:00:43.465Z" agent="Mozilla/5.0 (Windows NT 10.0; Win64; x64; rv:109.0) Gecko/20100101 Firefox/112.0" etag="QfvwRWgs_pDdweDsvgLw" version="21.2.4" type="device">
  <diagram name="Page-1" id="0fy3aKQkxQfFOcMbDkes">
    <mxGraphModel dx="1247" dy="690" grid="1" gridSize="10" guides="1" tooltips="1" connect="1" arrows="1" fold="1" page="1" pageScale="1" pageWidth="850" pageHeight="1100" math="0" shadow="0">
      <root>
        <mxCell id="0" />
        <mxCell id="1" parent="0" />
        <mxCell id="Mxblclcmyq-MSdtDPfNW-46" value="&amp;lt;&amp;lt;creates&amp;gt;&amp;gt;" style="html=1;verticalAlign=bottom;endArrow=block;labelBackgroundColor=none;fontFamily=Helvetica;fontSize=12;edgeStyle=elbowEdgeStyle;elbow=vertical;" edge="1" parent="1" source="Mxblclcmyq-MSdtDPfNW-3">
          <mxGeometry x="0.0005" relative="1" as="geometry">
            <mxPoint x="930" y="590" as="sourcePoint" />
            <mxPoint as="offset" />
            <mxPoint x="1085" y="590" as="targetPoint" />
            <Array as="points">
              <mxPoint x="965" y="590" />
              <mxPoint x="1045" y="600" />
            </Array>
          </mxGeometry>
        </mxCell>
        <mxCell id="Mxblclcmyq-MSdtDPfNW-1" value=":Uchigatana" style="shape=umlLifeline;perimeter=lifelinePerimeter;whiteSpace=wrap;html=1;container=1;collapsible=0;recursiveResize=0;outlineConnect=0;rounded=1;shadow=0;comic=0;labelBackgroundColor=none;strokeWidth=1;fontFamily=Helvetica;fontSize=12;align=center;size=40;" vertex="1" parent="1">
          <mxGeometry x="330" y="160" width="100" height="590" as="geometry" />
        </mxCell>
        <mxCell id="Mxblclcmyq-MSdtDPfNW-2" value="" style="html=1;points=[];perimeter=orthogonalPerimeter;rounded=0;shadow=0;comic=0;labelBackgroundColor=none;strokeWidth=1;fontFamily=Helvetica;fontSize=12;align=center;" vertex="1" parent="Mxblclcmyq-MSdtDPfNW-1">
          <mxGeometry x="45" y="65" width="10" height="25" as="geometry" />
        </mxCell>
        <mxCell id="Mxblclcmyq-MSdtDPfNW-3" value=":UnsheatheAction" style="shape=umlLifeline;perimeter=lifelinePerimeter;whiteSpace=wrap;html=1;container=1;collapsible=0;recursiveResize=0;outlineConnect=0;rounded=1;shadow=0;comic=0;labelBackgroundColor=none;strokeWidth=1;fontFamily=Helvetica;fontSize=12;align=center;" vertex="1" parent="1">
          <mxGeometry x="581.03" y="210" width="100" height="560" as="geometry" />
        </mxCell>
        <mxCell id="Mxblclcmyq-MSdtDPfNW-4" value="" style="html=1;points=[];perimeter=orthogonalPerimeter;rounded=0;shadow=0;comic=0;labelBackgroundColor=none;strokeWidth=1;fontFamily=Helvetica;fontSize=12;align=center;" vertex="1" parent="Mxblclcmyq-MSdtDPfNW-3">
          <mxGeometry x="45" y="60" width="10" height="30" as="geometry" />
        </mxCell>
        <mxCell id="Mxblclcmyq-MSdtDPfNW-36" value="&amp;lt;&amp;lt;creates&amp;gt;&amp;gt;" style="html=1;verticalAlign=bottom;endArrow=block;labelBackgroundColor=none;fontFamily=Helvetica;fontSize=12;edgeStyle=elbowEdgeStyle;elbow=vertical;" edge="1" parent="Mxblclcmyq-MSdtDPfNW-3">
          <mxGeometry x="0.0005" relative="1" as="geometry">
            <mxPoint x="55" y="60" as="sourcePoint" />
            <mxPoint as="offset" />
            <mxPoint x="210" y="60" as="targetPoint" />
            <Array as="points">
              <mxPoint x="90" y="60" />
              <mxPoint x="170" y="70" />
            </Array>
          </mxGeometry>
        </mxCell>
        <mxCell id="Mxblclcmyq-MSdtDPfNW-5" value=":Player" style="shape=umlLifeline;perimeter=lifelinePerimeter;whiteSpace=wrap;html=1;container=1;collapsible=0;recursiveResize=0;outlineConnect=0;rounded=1;shadow=0;comic=0;labelBackgroundColor=none;strokeWidth=1;fontFamily=Helvetica;fontSize=12;align=center;" vertex="1" parent="1">
          <mxGeometry x="100" y="80" width="100" height="680" as="geometry" />
        </mxCell>
        <mxCell id="Mxblclcmyq-MSdtDPfNW-6" value="" style="html=1;points=[];perimeter=orthogonalPerimeter;rounded=0;shadow=0;comic=0;labelBackgroundColor=none;strokeWidth=1;fontFamily=Helvetica;fontSize=12;align=center;" vertex="1" parent="Mxblclcmyq-MSdtDPfNW-5">
          <mxGeometry x="45" y="100" width="10" height="560" as="geometry" />
        </mxCell>
        <mxCell id="Mxblclcmyq-MSdtDPfNW-7" value="&amp;lt;&amp;lt;creates&amp;gt;&amp;gt;" style="html=1;verticalAlign=bottom;endArrow=block;labelBackgroundColor=none;fontFamily=Helvetica;fontSize=12;edgeStyle=elbowEdgeStyle;elbow=vertical;" edge="1" parent="1" source="Mxblclcmyq-MSdtDPfNW-6">
          <mxGeometry x="0.0005" relative="1" as="geometry">
            <mxPoint x="220" y="190" as="sourcePoint" />
            <mxPoint as="offset" />
            <mxPoint x="330" y="180" as="targetPoint" />
            <Array as="points">
              <mxPoint x="330" y="180" />
            </Array>
          </mxGeometry>
        </mxCell>
        <mxCell id="Mxblclcmyq-MSdtDPfNW-24" value=":UnsheatheWeapon" style="shape=umlLifeline;perimeter=lifelinePerimeter;whiteSpace=wrap;html=1;container=1;collapsible=0;recursiveResize=0;outlineConnect=0;rounded=1;shadow=0;comic=0;labelBackgroundColor=none;strokeWidth=1;fontFamily=Helvetica;fontSize=12;align=center;" vertex="1" parent="1">
          <mxGeometry x="791.03" y="250" width="109" height="530" as="geometry" />
        </mxCell>
        <mxCell id="Mxblclcmyq-MSdtDPfNW-28" value="Opt" style="shape=umlFrame;whiteSpace=wrap;html=1;pointerEvents=0;width=50;height=20;fontFamily=Helvetica;" vertex="1" parent="1">
          <mxGeometry x="521" y="400" width="689" height="280" as="geometry" />
        </mxCell>
        <mxCell id="Mxblclcmyq-MSdtDPfNW-29" value="&lt;div&gt;[with a 60% &lt;br&gt;&lt;/div&gt;&lt;div&gt;chance]&lt;/div&gt;" style="text;html=1;align=center;verticalAlign=middle;resizable=0;points=[];autosize=1;strokeColor=none;fillColor=none;fontFamily=Helvetica;" vertex="1" parent="1">
          <mxGeometry x="515" y="425" width="90" height="40" as="geometry" />
        </mxCell>
        <mxCell id="Mxblclcmyq-MSdtDPfNW-30" value="result" style="html=1;verticalAlign=bottom;endArrow=open;dashed=1;endSize=8;labelBackgroundColor=none;fontFamily=Helvetica;fontSize=12;elbow=vertical;edgeStyle=elbowEdgeStyle;" edge="1" parent="1" source="Mxblclcmyq-MSdtDPfNW-3" target="Mxblclcmyq-MSdtDPfNW-5">
          <mxGeometry x="-0.0006" relative="1" as="geometry">
            <mxPoint x="155" y="770" as="targetPoint" />
            <Array as="points">
              <mxPoint x="470" y="740" />
            </Array>
            <mxPoint x="440" y="770" as="sourcePoint" />
            <mxPoint as="offset" />
          </mxGeometry>
        </mxCell>
        <mxCell id="Mxblclcmyq-MSdtDPfNW-35" value="&amp;lt;&amp;lt;creates&amp;gt;&amp;gt;" style="html=1;verticalAlign=bottom;endArrow=block;labelBackgroundColor=none;fontFamily=Helvetica;fontSize=12;edgeStyle=elbowEdgeStyle;elbow=vertical;" edge="1" parent="1">
          <mxGeometry x="0.0005" relative="1" as="geometry">
            <mxPoint x="390" y="230" as="sourcePoint" />
            <mxPoint as="offset" />
            <mxPoint x="581.03" y="230" as="targetPoint" />
            <Array as="points">
              <mxPoint x="381.03" y="230" />
              <mxPoint x="511.03" y="190" />
            </Array>
          </mxGeometry>
        </mxCell>
        <mxCell id="Mxblclcmyq-MSdtDPfNW-39" value=":Enemy" style="shape=umlLifeline;perimeter=lifelinePerimeter;whiteSpace=wrap;html=1;container=1;collapsible=0;recursiveResize=0;outlineConnect=0;rounded=1;shadow=0;comic=0;labelBackgroundColor=none;strokeWidth=1;fontFamily=Helvetica;fontSize=12;align=center;" vertex="1" parent="1">
          <mxGeometry x="950" y="80" width="109" height="690" as="geometry" />
        </mxCell>
        <mxCell id="Mxblclcmyq-MSdtDPfNW-40" value="" style="html=1;points=[];perimeter=orthogonalPerimeter;rounded=0;shadow=0;comic=0;labelBackgroundColor=none;strokeWidth=1;fontFamily=Helvetica;fontSize=12;align=center;" vertex="1" parent="Mxblclcmyq-MSdtDPfNW-39">
          <mxGeometry x="49.5" y="360" width="10" height="100" as="geometry" />
        </mxCell>
        <mxCell id="Mxblclcmyq-MSdtDPfNW-41" value="hurt(damage)" style="html=1;verticalAlign=bottom;endArrow=block;labelBackgroundColor=none;fontFamily=Helvetica;fontSize=12;rounded=0;edgeStyle=elbowEdgeStyle;elbow=vertical;" edge="1" parent="1" source="Mxblclcmyq-MSdtDPfNW-3" target="Mxblclcmyq-MSdtDPfNW-39">
          <mxGeometry relative="1" as="geometry">
            <mxPoint x="633" y="449.57" as="sourcePoint" />
            <mxPoint x="1114" y="449.57" as="targetPoint" />
            <mxPoint as="offset" />
            <Array as="points">
              <mxPoint x="690" y="440" />
              <mxPoint x="830" y="430" />
              <mxPoint x="933" y="559.57" />
            </Array>
          </mxGeometry>
        </mxCell>
        <mxCell id="Mxblclcmyq-MSdtDPfNW-42" value="" style="html=1;points=[];perimeter=orthogonalPerimeter;rounded=0;shadow=0;comic=0;labelBackgroundColor=none;strokeWidth=1;fontFamily=Helvetica;fontSize=12;align=center;" vertex="1" parent="1">
          <mxGeometry x="626.03" y="390" width="10" height="350" as="geometry" />
        </mxCell>
        <mxCell id="Mxblclcmyq-MSdtDPfNW-26" value="execute(Actor actor, GameMap map)" style="html=1;verticalAlign=bottom;endArrow=block;labelBackgroundColor=none;fontFamily=Helvetica;fontSize=12;rounded=0;edgeStyle=elbowEdgeStyle;elbow=vertical;" edge="1" parent="1" target="Mxblclcmyq-MSdtDPfNW-3" source="Mxblclcmyq-MSdtDPfNW-5">
          <mxGeometry relative="1" as="geometry">
            <mxPoint x="453.5" y="650" as="sourcePoint" />
            <mxPoint x="680" y="550" as="targetPoint" />
            <mxPoint as="offset" />
            <Array as="points">
              <mxPoint x="510" y="390" />
              <mxPoint x="450" y="500" />
            </Array>
          </mxGeometry>
        </mxCell>
        <mxCell id="Mxblclcmyq-MSdtDPfNW-43" value="isConscious()" style="html=1;verticalAlign=bottom;endArrow=block;labelBackgroundColor=none;fontFamily=Helvetica;fontSize=12;rounded=0;edgeStyle=elbowEdgeStyle;elbow=vertical;" edge="1" parent="1">
          <mxGeometry relative="1" as="geometry">
            <mxPoint x="636.03" y="510" as="sourcePoint" />
            <mxPoint x="1000" y="510" as="targetPoint" />
            <mxPoint as="offset" />
            <Array as="points">
              <mxPoint x="695.03" y="510" />
              <mxPoint x="835.03" y="500" />
              <mxPoint x="938.03" y="629.57" />
            </Array>
          </mxGeometry>
        </mxCell>
        <mxCell id="Mxblclcmyq-MSdtDPfNW-44" value="Opt" style="shape=umlFrame;whiteSpace=wrap;html=1;pointerEvents=0;width=50;height=20;fontFamily=Helvetica;" vertex="1" parent="1">
          <mxGeometry x="537" y="560" width="663" height="110" as="geometry" />
        </mxCell>
        <mxCell id="Mxblclcmyq-MSdtDPfNW-45" value="&lt;div&gt;[if the enemy is &lt;br&gt;&lt;/div&gt;&lt;div&gt;not conscious]&lt;/div&gt;" style="text;html=1;align=center;verticalAlign=middle;resizable=0;points=[];autosize=1;strokeColor=none;fillColor=none;fontFamily=Helvetica;" vertex="1" parent="1">
          <mxGeometry x="530" y="585" width="100" height="40" as="geometry" />
        </mxCell>
        <mxCell id="Mxblclcmyq-MSdtDPfNW-47" value=":DeathAction" style="shape=umlLifeline;perimeter=lifelinePerimeter;whiteSpace=wrap;html=1;container=1;collapsible=0;recursiveResize=0;outlineConnect=0;rounded=1;shadow=0;comic=0;labelBackgroundColor=none;strokeWidth=1;fontFamily=Helvetica;fontSize=12;align=center;" vertex="1" parent="1">
          <mxGeometry x="1085" y="570" width="109" height="200" as="geometry" />
        </mxCell>
        <mxCell id="Mxblclcmyq-MSdtDPfNW-49" value="" style="html=1;points=[];perimeter=orthogonalPerimeter;rounded=0;shadow=0;comic=0;labelBackgroundColor=none;strokeWidth=1;fontFamily=Helvetica;fontSize=12;align=center;" vertex="1" parent="Mxblclcmyq-MSdtDPfNW-47">
          <mxGeometry x="49.5" y="50" width="10" height="30" as="geometry" />
        </mxCell>
        <mxCell id="Mxblclcmyq-MSdtDPfNW-48" value="execute(target, map)" style="html=1;verticalAlign=bottom;endArrow=block;labelBackgroundColor=none;fontFamily=Helvetica;fontSize=12;edgeStyle=elbowEdgeStyle;elbow=vertical;" edge="1" parent="1" target="Mxblclcmyq-MSdtDPfNW-47">
          <mxGeometry x="0.0005" relative="1" as="geometry">
            <mxPoint x="636.03" y="620" as="sourcePoint" />
            <mxPoint as="offset" />
            <mxPoint x="1090.03" y="620" as="targetPoint" />
            <Array as="points">
              <mxPoint x="970.03" y="620" />
              <mxPoint x="1050.03" y="630" />
            </Array>
          </mxGeometry>
        </mxCell>
        <mxCell id="Mxblclcmyq-MSdtDPfNW-50" value="result" style="html=1;verticalAlign=bottom;endArrow=open;dashed=1;endSize=8;labelBackgroundColor=none;fontFamily=Helvetica;fontSize=12;elbow=vertical;edgeStyle=elbowEdgeStyle;" edge="1" parent="1" source="Mxblclcmyq-MSdtDPfNW-47" target="Mxblclcmyq-MSdtDPfNW-3">
          <mxGeometry x="-0.0006" relative="1" as="geometry">
            <mxPoint x="160" y="750" as="targetPoint" />
            <Array as="points">
              <mxPoint x="920" y="650" />
            </Array>
            <mxPoint x="641" y="750" as="sourcePoint" />
            <mxPoint as="offset" />
          </mxGeometry>
        </mxCell>
        <mxCell id="Mxblclcmyq-MSdtDPfNW-52" value="boolean" style="html=1;verticalAlign=bottom;endArrow=open;dashed=1;endSize=8;labelBackgroundColor=none;fontFamily=Helvetica;fontSize=12;elbow=vertical;edgeStyle=elbowEdgeStyle;" edge="1" parent="1">
          <mxGeometry x="0.0015" relative="1" as="geometry">
            <mxPoint x="630.6604347826087" y="534" as="targetPoint" />
            <Array as="points">
              <mxPoint x="910" y="534" />
              <mxPoint x="1000" y="544" />
              <mxPoint x="930" y="674" />
            </Array>
            <mxPoint x="1004.0000000000005" y="534" as="sourcePoint" />
            <mxPoint as="offset" />
          </mxGeometry>
        </mxCell>
      </root>
    </mxGraphModel>
  </diagram>
</mxfile>
